<mxfile host="65bd71144e">
    <diagram id="N3PUmzgvgMg_7swP09s3" name="Page-1">
        <mxGraphModel dx="1218" dy="1087" grid="0" gridSize="10" guides="1" tooltips="1" connect="1" arrows="1" fold="1" page="1" pageScale="1" pageWidth="850" pageHeight="1100" math="0" shadow="0">
            <root>
                <mxCell id="0"/>
                <mxCell id="1" parent="0"/>
                <mxCell id="10" value="eeg data" style="whiteSpace=wrap;html=1;" parent="1" vertex="1">
                    <mxGeometry x="40" y="320" width="100" height="400" as="geometry"/>
                </mxCell>
                <mxCell id="9" value="eeg data" style="whiteSpace=wrap;html=1;" parent="1" vertex="1">
                    <mxGeometry x="50" y="330" width="100" height="400" as="geometry"/>
                </mxCell>
                <mxCell id="8" value="eeg data" style="whiteSpace=wrap;html=1;" parent="1" vertex="1">
                    <mxGeometry x="60" y="340" width="100" height="400" as="geometry"/>
                </mxCell>
                <mxCell id="7" value="eeg data" style="whiteSpace=wrap;html=1;" parent="1" vertex="1">
                    <mxGeometry x="70" y="350" width="100" height="400" as="geometry"/>
                </mxCell>
                <mxCell id="2" value="eeg data" style="whiteSpace=wrap;html=1;" parent="1" vertex="1">
                    <mxGeometry x="80" y="360" width="100" height="400" as="geometry"/>
                </mxCell>
                <mxCell id="3" value="" style="shape=curlyBracket;whiteSpace=wrap;html=1;rounded=1;flipH=1;labelPosition=right;verticalLabelPosition=middle;align=left;verticalAlign=middle;" parent="1" vertex="1">
                    <mxGeometry x="186" y="360" width="10" height="400" as="geometry"/>
                </mxCell>
                <mxCell id="4" value="" style="shape=curlyBracket;whiteSpace=wrap;html=1;rounded=1;flipH=1;labelPosition=right;verticalLabelPosition=middle;align=left;verticalAlign=middle;rotation=90;" parent="1" vertex="1">
                    <mxGeometry x="125" y="721" width="10" height="100" as="geometry"/>
                </mxCell>
                <mxCell id="5" value="&lt;span style=&quot;background-color: transparent;&quot;&gt;20 columns:&lt;/span&gt;&lt;br&gt;&lt;ul&gt;&lt;li&gt;18 eeg electrode readings&lt;/li&gt;&lt;li&gt;1 o2 reading&lt;/li&gt;&lt;li&gt;1 ekg reading&lt;/li&gt;&lt;/ul&gt;" style="text;html=1;align=left;verticalAlign=top;resizable=0;points=[];autosize=1;strokeColor=default;fillColor=none;fontSize=10;" parent="1" vertex="1">
                    <mxGeometry x="51" y="783" width="180" height="100" as="geometry"/>
                </mxCell>
                <mxCell id="6" value="&lt;font&gt;&lt;span style=&quot;background-color: transparent;&quot;&gt;2000 rows:&lt;/span&gt;&lt;br&gt;&lt;/font&gt;&lt;ul&gt;&lt;li&gt;&lt;font&gt;200 samples/second&lt;/font&gt;&lt;/li&gt;&lt;li&gt;&lt;font&gt;10 seconds&lt;/font&gt;&lt;/li&gt;&lt;li&gt;&lt;font&gt;sequence length = 2000&lt;/font&gt;&lt;/li&gt;&lt;/ul&gt;" style="text;html=1;align=left;verticalAlign=top;resizable=0;points=[];autosize=1;strokeColor=default;fillColor=none;fontSize=10;" parent="1" vertex="1">
                    <mxGeometry x="204" y="510" width="170" height="100" as="geometry"/>
                </mxCell>
                <mxCell id="11" value="" style="shape=curlyBracket;whiteSpace=wrap;html=1;rounded=1;flipH=1;labelPosition=right;verticalLabelPosition=middle;align=left;verticalAlign=middle;rotation=-45;" parent="1" vertex="1">
                    <mxGeometry x="163" y="303.45000000000005" width="10" height="56.55" as="geometry"/>
                </mxCell>
                <mxCell id="12" value="batch size" style="text;html=1;align=center;verticalAlign=middle;resizable=0;points=[];autosize=1;strokeColor=default;fillColor=none;fontSize=10;horizontal=1;" parent="1" vertex="1">
                    <mxGeometry x="177" y="299.45000000000005" width="63" height="24" as="geometry"/>
                </mxCell>
                <mxCell id="13" value="" style="whiteSpace=wrap;html=1;" vertex="1" parent="1">
                    <mxGeometry x="260" y="119.96000000000004" width="300" height="20" as="geometry"/>
                </mxCell>
                <mxCell id="14" value="" style="whiteSpace=wrap;html=1;" vertex="1" parent="1">
                    <mxGeometry x="270" y="129.96000000000004" width="300" height="20" as="geometry"/>
                </mxCell>
                <mxCell id="15" value="" style="whiteSpace=wrap;html=1;" vertex="1" parent="1">
                    <mxGeometry x="280" y="139.96000000000004" width="300" height="20" as="geometry"/>
                </mxCell>
                <mxCell id="16" value="" style="whiteSpace=wrap;html=1;" vertex="1" parent="1">
                    <mxGeometry x="290" y="149.96000000000004" width="300" height="20" as="geometry"/>
                </mxCell>
                <mxCell id="17" value="spectrogram data" style="whiteSpace=wrap;html=1;" vertex="1" parent="1">
                    <mxGeometry x="300" y="159.96000000000004" width="300" height="20" as="geometry"/>
                </mxCell>
                <mxCell id="18" value="" style="shape=curlyBracket;whiteSpace=wrap;html=1;rounded=1;flipH=1;labelPosition=right;verticalLabelPosition=middle;align=left;verticalAlign=middle;" vertex="1" parent="1">
                    <mxGeometry x="605.64" y="159.96000000000004" width="15" height="20.04" as="geometry"/>
                </mxCell>
                <mxCell id="19" value="" style="shape=curlyBracket;whiteSpace=wrap;html=1;rounded=1;flipH=1;labelPosition=right;verticalLabelPosition=middle;align=left;verticalAlign=middle;rotation=90;" vertex="1" parent="1">
                    <mxGeometry x="441" y="50" width="18" height="299.84" as="geometry"/>
                </mxCell>
                <mxCell id="20" value="&lt;span style=&quot;background-color: transparent;&quot;&gt;401 columns:&lt;/span&gt;&lt;br&gt;&lt;ul&gt;&lt;li&gt;1 time&lt;/li&gt;&lt;li&gt;400 bins&lt;/li&gt;&lt;/ul&gt;" style="text;html=1;align=left;verticalAlign=top;resizable=0;points=[];autosize=1;strokeColor=default;fillColor=none;fontSize=10;" vertex="1" parent="1">
                    <mxGeometry x="430" y="215" width="100" height="80" as="geometry"/>
                </mxCell>
                <mxCell id="21" value="&lt;font&gt;&lt;span style=&quot;background-color: transparent;&quot;&gt;6 rows:&lt;/span&gt;&lt;br&gt;&lt;/font&gt;&lt;ul&gt;&lt;li&gt;&lt;span style=&quot;background-color: transparent;&quot;&gt;&lt;font&gt;10 seconds&lt;/font&gt;&lt;/span&gt;&lt;/li&gt;&lt;li&gt;&lt;span style=&quot;background-color: transparent;&quot;&gt;&lt;font&gt;1 row / 2 seconds&lt;/font&gt;&lt;/span&gt;&lt;/li&gt;&lt;li&gt;&lt;font&gt;&lt;font&gt;extra row since rows are&lt;br&gt;&lt;/font&gt;centered on odd times&lt;/font&gt;&lt;/li&gt;&lt;/ul&gt;" style="text;html=1;align=left;verticalAlign=middle;resizable=0;points=[];autosize=1;strokeColor=default;fillColor=none;fontSize=10;" vertex="1" parent="1">
                    <mxGeometry x="630" y="139.96000000000004" width="166" height="110" as="geometry"/>
                </mxCell>
                <mxCell id="22" value="" style="shape=curlyBracket;whiteSpace=wrap;html=1;rounded=1;flipH=1;labelPosition=right;verticalLabelPosition=middle;align=left;verticalAlign=middle;rotation=-45;" vertex="1" parent="1">
                    <mxGeometry x="583" y="100.92000000000007" width="15" height="56.55" as="geometry"/>
                </mxCell>
                <mxCell id="23" value="batch size" style="text;html=1;align=center;verticalAlign=middle;resizable=0;points=[];autosize=1;strokeColor=default;fillColor=none;fontSize=10;" vertex="1" parent="1">
                    <mxGeometry x="601" y="94.96000000000004" width="63" height="24" as="geometry"/>
                </mxCell>
            </root>
        </mxGraphModel>
    </diagram>
</mxfile>